<svg width="123" height="123" xmlns="http://www.w3.org/2000/svg"><g fill="none" fill-rule="evenodd"><path fill="#EFEFEF" fill-rule="nonzero" d="M120 121V3H2z"/><path d="M3 3c-.55 0-.68.32-.29.71l116.58 116.58c.39.39.71.26.71-.29V4a1 1 0 0 0-1-1H3z" stroke="#898989" stroke-width="4"/><g opacity=".9"><path d="M68.17 70.95h15.91" stroke="#F7F8F8" stroke-width="16"/><path d="M68.17 70.95h15.91" stroke="#727171" stroke-width="6"/></g><g opacity=".9"><path d="M76.11 89.34c0 2.2-1.12 4-2.51 4H14.85c-1.39 0-2.51-1.78-2.51-4V54.19c0-2.2 1.13-4 2.51-4H73.6c1.39 0 2.51 1.78 2.51 4v35.15z" stroke="#F7F8F8" stroke-width="16"/><path d="M76.11 89.34c0 2.2-1.12 4-2.51 4H14.85c-1.39 0-2.51-1.78-2.51-4V54.19c0-2.2 1.13-4 2.51-4H73.6c1.39 0 2.51 1.78 2.51 4v35.15z" stroke="#727171" stroke-width="6"/></g><g opacity=".9"><path d="M84.08 70.95h13.63a3.06 3.06 0 0 0 3-3.16V31a3.06 3.06 0 0 0-3-3.16H39.85a3.06 3.06 0 0 0-3 3.16v36.8a3.06 3.06 0 0 0 3 3.16h28.32" stroke="#F7F8F8" stroke-width="16"/><path d="M84.08 70.95h13.63a3.06 3.06 0 0 0 3-3.16V31a3.06 3.06 0 0 0-3-3.16H39.85a3.06 3.06 0 0 0-3 3.16v36.8a3.06 3.06 0 0 0 3 3.16h28.32" stroke="#727171" stroke-width="6"/></g></g></svg>