<svg width="279" height="34" xmlns="http://www.w3.org/2000/svg"><g stroke="#727171" fill="none"><path fill="#727171" d="M2.55 2v28.13h19.26v.38H2V2zM32 5.55V2h.53v3.55H32zm0 25.75V11.12h.53V31.3H32zm12.48-16.74h.48a11.36 11.36 0 0 1 4-3.25A11.29 11.29 0 0 1 54.11 10c2.9 0 4.987.643 6.26 1.93 1.273 1.287 1.91 3.49 1.91 6.61V30.6h-.48V18.54c0-3.167-.62-5.313-1.86-6.44-1.24-1.127-3.18-1.687-5.82-1.68a11.42 11.42 0 0 0-6.52 2.14c-2.08 1.433-3.12 2.897-3.12 4.39V30.6H44V10.42h.48v4.14zm27.05 5.88h.43l15.75-9.32h.87l-16.48 9.7L88.83 31.3h-.77l-16.1-10.13h-.43V31.3H71V2h.53zm50.41-5.84v.39c6.253.827 9.38 3.237 9.38 7.23 0 5.54-4.867 8.31-14.6 8.31H110V2h6.19c8.76 0 13.14 2.113 13.14 6.34.007 3.193-2.457 5.28-7.39 6.26zm-11.4.08h6.19c3.833 0 6.807-.54 8.92-1.62a5.1 5.1 0 0 0 3.16-4.72 6.14 6.14 0 0 0-.19-1.61 3.85 3.85 0 0 0-1-1.57 6.71 6.71 0 0 0-2.15-1.42 15.07 15.07 0 0 0-3.7-.95 37.09 37.09 0 0 0-5.58-.37h-5.65v12.26zm0 .43v15.02h6.19c4.767 0 8.303-.643 10.61-1.93a6.41 6.41 0 0 0 3.45-6c0-4.74-4.687-7.11-14.06-7.11l-6.19.02zM141 31.3V2h.53v29.3zm27.855-5.297h-.48a9.31 9.31 0 0 1-4 3.69 13.66 13.66 0 0 1-6.17 1.3 8.25 8.25 0 0 1-5.29-1.53 5.08 5.08 0 0 1-1.91-4.19 5.52 5.52 0 0 1 .34-2 5.2 5.2 0 0 1 1.28-1.84 8.34 8.34 0 0 1 2.44-1.61 17.44 17.44 0 0 1 4.14-1.07 35.84 35.84 0 0 1 5.95-.44h3.72v-2.17c0-2.086-.58-3.563-1.74-4.43-1.16-.866-3.137-1.296-5.93-1.29a27.13 27.13 0 0 0-8.89 1.35v-.46a27.91 27.91 0 0 1 8.89-1.31c2.993 0 5.103.47 6.33 1.41 1.226.94 1.84 2.52 1.84 4.74v14.45h-.48l-.04-4.6zm0-7.27h-3.72c-9.054 0-13.58 2.177-13.58 6.53a4.75 4.75 0 0 0 1.76 3.9 7.58 7.58 0 0 0 4.89 1.44 12.22 12.22 0 0 0 7.61-2.3 7 7 0 0 0 3-5.82l.04-3.75zm9.575-4.173h.48a11.35 11.35 0 0 1 4-3.25 11.28 11.28 0 0 1 5.15-1.31c2.9 0 4.987.643 6.26 1.93 1.273 1.287 1.933 3.49 1.98 6.61V30.6h-.48V18.54c0-3.167-.62-5.313-1.86-6.44-1.24-1.127-3.18-1.687-5.82-1.68a11.42 11.42 0 0 0-6.52 2.14c-2.093 1.433-3.14 2.897-3.14 4.39V30.6H178V10.42h.48l-.05 4.14zm27.09 5.88h.43l15.75-9.32h.87l-16.48 9.7 16.73 10.48h-.77l-16.09-10.13h-.43V31.3H205V2h.53zm34.882 10.18a22.17 22.17 0 0 0 7.39-1.16v.46a24.81 24.81 0 0 1-7.39 1.08c-7.607 0-11.407-3.493-11.4-10.48a13.42 13.42 0 0 1 .68-4.45 8.85 8.85 0 0 1 1.69-3.05 7.61 7.61 0 0 1 2.46-1.8 12.14 12.14 0 0 1 2.85-.95 15.49 15.49 0 0 1 2.95-.27c6.44 0 9.663 3.377 9.67 10.13v.19h-19.77c0 6.867 3.623 10.3 10.87 10.3zm-10.87-10.71h19.28c-.127-6.313-3.187-9.47-9.18-9.47-6.473 0-9.84 3.157-10.1 9.47zm27.928-3.105h.48a10.08 10.08 0 0 1 4.52-4.29 15.77 15.77 0 0 1 7.13-1.51h.77v.39h-.77a13.94 13.94 0 0 0-8.7 2.63 8.09 8.09 0 0 0-3.41 6.71v10.47H257v-20.18h.48l-.02 5.78z"/><path stroke-width="1.5" fill="#E5C0D5" d="M87 7l7.12.14-3.68 6.1z"/><path stroke-width="1.5" fill="#A1D7E0" d="M270 7l6.28 3.37-6.06 3.76z"/></g></svg>